<?xml version="1.0" encoding="UTF-8" standalone="no"?>
<!DOCTYPE svg PUBLIC "-//W3C//DTD SVG 1.1//EN" "http://www.w3.org/Graphics/SVG/1.1/DTD/svg11.dtd">
<svg width="100%" height="100%" viewBox="0 0 80 10" version="1.1" xmlns="http://www.w3.org/2000/svg" xmlns:xlink="http://www.w3.org/1999/xlink" xml:space="preserve" xmlns:serif="http://www.serif.com/" style="fill-rule:evenodd;clip-rule:evenodd;stroke-linejoin:round;stroke-miterlimit:2;">
    <g transform="matrix(0.252436,0,0,0.218065,-16.7414,-48.5791)">
        <path d="M929.673,406.816C1020.69,406.25 1089,461.166 1138.28,528.798C1189.62,599.236 1220.75,683.738 1234.94,739.28C1287.27,944.057 1376.85,1034.57 1460.63,1043.18C1546.83,1052.05 1634.55,976.414 1682.5,832.433C1700.25,779.132 1704.41,715.226 1717.93,662.984C1729.65,617.725 1739.75,564.694 1759.95,529.106C1805.6,448.692 1881.87,398.575 1946.17,427.972C2065.22,482.391 2115.46,632.339 2143.41,741.738C2195.75,946.515 2285.33,1037.03 2369.1,1045.64C2455.3,1054.5 2543.03,978.872 2590.98,834.891C2608.74,781.564 2618.57,725.087 2632.49,671.218C2645.16,622.154 2675.83,555.003 2696.22,519.092C2741.85,438.711 2819.76,393.065 2884.04,422.45C2940.98,448.479 2975.51,497.046 2999.5,551.759C3025.57,611.202 3039.6,677.87 3054.13,734.719C3081.23,840.775 3109.1,917.039 3141.86,967.042C3178.93,1023.65 3222.42,1049.57 3277.55,1049.54C3409.7,1049.46 3480.82,941.482 3533.45,735.537C3547.9,678.977 3564.49,595.192 3600.29,525.561C3632.84,462.241 3682.23,411.061 3763.95,410.56C3778.3,410.472 3790.36,412.473 3804.61,418.987C3923.66,473.407 3973.89,623.355 4001.85,732.754C4054.18,937.53 4143.76,1028.05 4227.54,1036.66C4313.73,1045.52 4401.46,969.888 4449.41,825.906C4467.17,772.58 4477.01,716.102 4490.92,662.234C4503.59,613.169 4534.27,546.018 4554.65,510.108C4600.29,429.726 4678.19,384.081 4742.47,413.465C4799.41,439.495 4833.94,488.061 4857.94,542.774C4884.01,602.217 4898.04,668.885 4912.57,725.735C4939.67,831.79 4967.54,908.054 5000.29,958.058C5037.36,1014.66 5080.85,1040.59 5135.98,1040.56C5268.14,1040.48 5339.25,932.498 5391.88,726.552C5406.07,671.01 5437.2,586.508 5488.54,516.07C5537.82,448.438 5606.13,393.522 5697.15,394.088C5711.91,394.18 5723.96,380.38 5724.04,363.29C5724.12,346.201 5712.2,332.252 5697.44,332.16C5588.77,331.484 5506.49,395.388 5447.65,476.138C5390.85,554.082 5356.29,647.522 5340.58,708.984C5296.82,880.212 5245.83,978.562 5135.95,978.626C5097.95,978.648 5068.48,959.665 5042.92,920.641C5013.03,875.016 4988.59,804.934 4963.86,708.166C4948.49,648.012 4933.22,577.638 4905.64,514.74C4875.98,447.112 4832.5,388.038 4762.12,355.865C4676.82,316.875 4570.5,369.438 4509.94,476.096C4487.39,515.819 4453.68,590.222 4439.66,644.495C4426.14,696.851 4416.75,751.801 4399.49,803.63C4362.19,915.662 4299.34,981.867 4232.27,974.972C4199.86,971.64 4167.64,950.681 4137.99,911.704C4104.95,868.273 4075.71,803.466 4053.15,715.185C4021.3,590.571 3959.86,423.374 3824.26,361.386C3803.01,351.674 3785.06,348.5 3763.66,348.631C3659.48,349.27 3595.82,413.165 3554.32,493.889C3516.06,568.301 3497.59,657.524 3482.15,717.968C3438.39,889.196 3387.4,987.547 3277.52,987.611C3239.51,987.633 3210.04,968.649 3184.48,929.625C3154.6,884.001 3130.16,813.919 3105.43,717.151C3090.06,656.997 3074.79,586.623 3047.2,523.725C3017.55,456.096 2974.07,397.023 2903.69,364.849C2818.39,325.859 2712.06,378.423 2651.51,485.08C2628.96,524.804 2595.25,599.206 2581.23,653.48C2567.71,705.835 2558.32,760.786 2541.06,812.615C2503.75,924.647 2440.9,990.851 2373.84,983.956C2341.42,980.624 2309.21,959.666 2279.56,920.689C2246.52,877.257 2217.28,812.451 2194.71,724.17C2162.87,599.556 2101.43,432.359 1965.82,370.371C1880.55,331.39 1775.78,388.463 1715.25,495.094C1692.51,535.141 1679.87,594.274 1666.69,645.205C1653.53,696.028 1649.86,758.302 1632.59,810.157C1595.28,922.189 1532.43,988.393 1465.36,981.499C1432.95,978.166 1400.73,957.208 1371.09,918.231C1338.05,874.799 1308.8,809.993 1286.24,721.712C1270.53,660.25 1235.98,566.81 1179.17,488.866C1120.33,408.116 1038.06,344.212 929.386,344.888C914.623,344.98 902.702,358.929 902.781,376.018C902.861,393.108 914.911,406.908 929.673,406.816Z"/>
    </g>
</svg>
